<svg xmlns="http://www.w3.org/2000/svg" xmlns:xlink="http://www.w3.org/1999/xlink" width="800" zoomAndPan="magnify" viewBox="0 0 600 299.999988" height="400" preserveAspectRatio="xMidYMid meet" version="1.2"><defs/><g id="6873dbe274"><g style="fill:#ffffff;fill-opacity:1;"><g transform="translate(451.213007, 250.911823)"><path style="stroke:none" d="M 135.6875 -52.609375 C 135.6875 -35.503906 129.53125 -22.023438 117.21875 -12.171875 C 104.90625 -2.328125 87.773438 2.59375 65.828125 2.59375 C 45.617188 2.59375 27.738281 -1.207031 12.1875 -8.8125 L 12.1875 -46.140625 C 24.96875 -40.429688 35.785156 -36.410156 44.640625 -34.078125 C 53.492188 -31.742188 61.59375 -30.578125 68.9375 -30.578125 C 77.75 -30.578125 84.507812 -32.257812 89.21875 -35.625 C 93.925781 -39 96.28125 -44.015625 96.28125 -50.671875 C 96.28125 -54.390625 95.242188 -57.691406 93.171875 -60.578125 C 91.097656 -63.472656 88.050781 -66.257812 84.03125 -68.9375 C 80.019531 -71.613281 71.835938 -75.890625 59.484375 -81.765625 C 47.910156 -87.210938 39.226562 -92.441406 33.4375 -97.453125 C 27.644531 -102.460938 23.019531 -108.289062 19.5625 -114.9375 C 16.113281 -121.59375 14.390625 -129.375 14.390625 -138.28125 C 14.390625 -155.039062 20.066406 -168.210938 31.421875 -177.796875 C 42.785156 -187.390625 58.488281 -192.1875 78.53125 -192.1875 C 88.382812 -192.1875 97.78125 -191.019531 106.71875 -188.6875 C 115.65625 -186.351562 125.007812 -183.070312 134.78125 -178.84375 L 121.8125 -147.609375 C 111.707031 -151.753906 103.347656 -154.644531 96.734375 -156.28125 C 90.128906 -157.925781 83.628906 -158.75 77.234375 -158.75 C 69.628906 -158.75 63.796875 -156.976562 59.734375 -153.4375 C 55.679688 -149.894531 53.65625 -145.273438 53.65625 -139.578125 C 53.65625 -136.035156 54.472656 -132.945312 56.109375 -130.3125 C 57.753906 -127.675781 60.367188 -125.125 63.953125 -122.65625 C 67.535156 -120.195312 76.023438 -115.769531 89.421875 -109.375 C 107.128906 -100.90625 119.265625 -92.414062 125.828125 -83.90625 C 132.398438 -75.394531 135.6875 -64.960938 135.6875 -52.609375 Z M 135.6875 -52.609375 "/></g></g><g style="fill:#ffffff;fill-opacity:1;"><g transform="translate(-10.314774, 205.117735)"><path style="stroke:none" d="M 71.203125 0 L 14.078125 0 L 14.078125 -102.453125 L 71.203125 -102.453125 L 71.203125 -91.875 L 26 -91.875 L 26 -58.859375 L 68.46875 -58.859375 L 68.46875 -48.359375 L 26 -48.359375 L 26 -10.65625 L 71.203125 -10.65625 Z M 71.203125 0 "/></g></g><g style="fill:#ffffff;fill-opacity:1;"><g transform="translate(65.336187, 205.117735)"><path style="stroke:none" d="M 61.875 -20.953125 C 61.875 -13.804688 59.210938 -8.289062 53.890625 -4.40625 C 48.566406 -0.53125 41.09375 1.40625 31.46875 1.40625 C 21.28125 1.40625 13.335938 -0.207031 7.640625 -3.4375 L 7.640625 -14.21875 C 11.328125 -12.351562 15.285156 -10.882812 19.515625 -9.8125 C 23.742188 -8.738281 27.820312 -8.203125 31.75 -8.203125 C 37.820312 -8.203125 42.492188 -9.171875 45.765625 -11.109375 C 49.035156 -13.046875 50.671875 -16 50.671875 -19.96875 C 50.671875 -22.957031 49.375 -25.515625 46.78125 -27.640625 C 44.1875 -29.765625 39.128906 -32.273438 31.609375 -35.171875 C 24.453125 -37.835938 19.367188 -40.160156 16.359375 -42.140625 C 13.347656 -44.128906 11.101562 -46.382812 9.625 -48.90625 C 8.15625 -51.4375 7.421875 -54.453125 7.421875 -57.953125 C 7.421875 -64.210938 9.96875 -69.148438 15.0625 -72.765625 C 20.15625 -76.390625 27.140625 -78.203125 36.015625 -78.203125 C 44.285156 -78.203125 52.367188 -76.519531 60.265625 -73.15625 L 56.125 -63.703125 C 48.414062 -66.878906 41.429688 -68.46875 35.171875 -68.46875 C 29.660156 -68.46875 25.503906 -67.601562 22.703125 -65.875 C 19.898438 -64.144531 18.5 -61.757812 18.5 -58.71875 C 18.5 -56.664062 19.023438 -54.914062 20.078125 -53.46875 C 21.128906 -52.019531 22.820312 -50.640625 25.15625 -49.328125 C 27.488281 -48.023438 31.972656 -46.132812 38.609375 -43.65625 C 47.722656 -40.34375 53.878906 -37.003906 57.078125 -33.640625 C 60.273438 -30.273438 61.875 -26.046875 61.875 -20.953125 Z M 61.875 -20.953125 "/></g></g><g style="fill:#ffffff;fill-opacity:1;"><g transform="translate(129.635364, 205.117735)"><path style="stroke:none" d="M 37.140625 -8.203125 C 39.191406 -8.203125 41.175781 -8.351562 43.09375 -8.65625 C 45.007812 -8.957031 46.53125 -9.269531 47.65625 -9.59375 L 47.65625 -0.703125 C 46.394531 -0.0976562 44.535156 0.398438 42.078125 0.796875 C 39.628906 1.203125 37.421875 1.40625 35.453125 1.40625 C 20.597656 1.40625 13.171875 -6.421875 13.171875 -22.078125 L 13.171875 -67.765625 L 2.171875 -67.765625 L 2.171875 -73.375 L 13.171875 -78.203125 L 18.078125 -94.609375 L 24.8125 -94.609375 L 24.8125 -76.796875 L 47.09375 -76.796875 L 47.09375 -67.765625 L 24.8125 -67.765625 L 24.8125 -22.5625 C 24.8125 -17.9375 25.90625 -14.382812 28.09375 -11.90625 C 30.289062 -9.4375 33.304688 -8.203125 37.140625 -8.203125 Z M 37.140625 -8.203125 "/></g></g><g style="fill:#ffffff;fill-opacity:1;"><g transform="translate(176.136063, 205.117735)"><path style="stroke:none" d="M 59.5625 0 L 57.25 -10.9375 L 56.6875 -10.9375 C 52.851562 -6.125 49.03125 -2.863281 45.21875 -1.15625 C 41.414062 0.550781 36.664062 1.40625 30.96875 1.40625 C 23.351562 1.40625 17.382812 -0.554688 13.0625 -4.484375 C 8.75 -8.410156 6.59375 -13.992188 6.59375 -21.234375 C 6.59375 -36.742188 18.992188 -44.875 43.796875 -45.625 L 56.828125 -46.046875 L 56.828125 -50.8125 C 56.828125 -56.832031 55.53125 -61.28125 52.9375 -64.15625 C 50.34375 -67.03125 46.195312 -68.46875 40.5 -68.46875 C 34.101562 -68.46875 26.863281 -66.503906 18.78125 -62.578125 L 15.203125 -71.484375 C 18.984375 -73.535156 23.128906 -75.144531 27.640625 -76.3125 C 32.148438 -77.476562 36.671875 -78.0625 41.203125 -78.0625 C 50.359375 -78.0625 57.144531 -76.03125 61.5625 -71.96875 C 65.976562 -67.90625 68.1875 -61.390625 68.1875 -52.421875 L 68.1875 0 Z M 33.28125 -8.203125 C 40.519531 -8.203125 46.207031 -10.1875 50.34375 -14.15625 C 54.476562 -18.125 56.546875 -23.679688 56.546875 -30.828125 L 56.546875 -37.765625 L 44.921875 -37.28125 C 35.671875 -36.957031 29 -35.519531 24.90625 -32.96875 C 20.820312 -30.425781 18.78125 -26.46875 18.78125 -21.09375 C 18.78125 -16.882812 20.050781 -13.679688 22.59375 -11.484375 C 25.144531 -9.296875 28.707031 -8.203125 33.28125 -8.203125 Z M 30.5625 -88.71875 C 32.800781 -91.613281 35.21875 -95.113281 37.8125 -99.21875 C 40.40625 -103.332031 42.445312 -106.910156 43.9375 -109.953125 L 58.09375 -109.953125 L 58.09375 -108.484375 C 56.039062 -105.441406 52.976562 -101.703125 48.90625 -97.265625 C 44.84375 -92.828125 41.316406 -89.394531 38.328125 -86.96875 L 30.5625 -86.96875 Z M 30.5625 -88.71875 "/></g></g><g style="fill:#ffffff;fill-opacity:1;"><g transform="translate(251.787024, 205.117735)"><path style="stroke:none" d="M 75.1875 -76.796875 L 75.1875 -69.4375 L 60.96875 -67.765625 C 62.269531 -66.128906 63.4375 -63.988281 64.46875 -61.34375 C 65.5 -58.707031 66.015625 -55.734375 66.015625 -52.421875 C 66.015625 -44.898438 63.441406 -38.894531 58.296875 -34.40625 C 53.160156 -29.925781 46.109375 -27.6875 37.140625 -27.6875 C 34.847656 -27.6875 32.695312 -27.867188 30.6875 -28.234375 C 25.738281 -25.617188 23.265625 -22.328125 23.265625 -18.359375 C 23.265625 -16.253906 24.128906 -14.695312 25.859375 -13.6875 C 27.585938 -12.6875 30.550781 -12.1875 34.75 -12.1875 L 48.359375 -12.1875 C 56.671875 -12.1875 63.054688 -10.4375 67.515625 -6.9375 C 71.972656 -3.4375 74.203125 1.65625 74.203125 8.34375 C 74.203125 16.84375 70.789062 23.320312 63.96875 27.78125 C 57.15625 32.25 47.207031 34.484375 34.125 34.484375 C 24.082031 34.484375 16.335938 32.613281 10.890625 28.875 C 5.453125 25.132812 2.734375 19.851562 2.734375 13.03125 C 2.734375 8.363281 4.226562 4.320312 7.21875 0.90625 C 10.207031 -2.5 14.410156 -4.8125 19.828125 -6.03125 C 17.867188 -6.914062 16.222656 -8.289062 14.890625 -10.15625 C 13.554688 -12.03125 12.890625 -14.203125 12.890625 -16.671875 C 12.890625 -19.472656 13.632812 -21.925781 15.125 -24.03125 C 16.625 -26.132812 18.988281 -28.164062 22.21875 -30.125 C 18.238281 -31.757812 15 -34.539062 12.5 -38.46875 C 10.007812 -42.394531 8.765625 -46.878906 8.765625 -51.921875 C 8.765625 -60.335938 11.285156 -66.820312 16.328125 -71.375 C 21.367188 -75.925781 28.515625 -78.203125 37.765625 -78.203125 C 41.785156 -78.203125 45.40625 -77.734375 48.625 -76.796875 Z M 13.9375 12.890625 C 13.9375 17.046875 15.6875 20.195312 19.1875 22.34375 C 22.695312 24.5 27.722656 25.578125 34.265625 25.578125 C 44.023438 25.578125 51.253906 24.113281 55.953125 21.1875 C 60.648438 18.269531 63 14.3125 63 9.3125 C 63 5.15625 61.710938 2.269531 59.140625 0.65625 C 56.578125 -0.945312 51.742188 -1.75 44.640625 -1.75 L 30.6875 -1.75 C 25.414062 -1.75 21.304688 -0.488281 18.359375 2.03125 C 15.410156 4.550781 13.9375 8.171875 13.9375 12.890625 Z M 20.25 -52.203125 C 20.25 -46.828125 21.765625 -42.757812 24.796875 -40 C 27.835938 -37.25 32.066406 -35.875 37.484375 -35.875 C 48.835938 -35.875 54.515625 -41.390625 54.515625 -52.421875 C 54.515625 -63.953125 48.769531 -69.71875 37.28125 -69.71875 C 31.8125 -69.71875 27.601562 -68.242188 24.65625 -65.296875 C 21.71875 -62.359375 20.25 -57.992188 20.25 -52.203125 Z M 20.25 -52.203125 "/></g></g><g style="fill:#ffffff;fill-opacity:1;"><g transform="translate(326.246757, 205.117735)"><path style="stroke:none" d="M 23.96875 0 L 12.328125 0 L 12.328125 -76.796875 L 23.96875 -76.796875 Z M 11.359375 -97.609375 C 11.359375 -100.273438 12.007812 -102.226562 13.3125 -103.46875 C 14.625 -104.707031 16.257812 -105.328125 18.21875 -105.328125 C 20.082031 -105.328125 21.691406 -104.695312 23.046875 -103.4375 C 24.410156 -102.175781 25.09375 -100.234375 25.09375 -97.609375 C 25.09375 -94.992188 24.410156 -93.046875 23.046875 -91.765625 C 21.691406 -90.484375 20.082031 -89.84375 18.21875 -89.84375 C 16.257812 -89.84375 14.625 -90.484375 13.3125 -91.765625 C 12.007812 -93.046875 11.359375 -94.992188 11.359375 -97.609375 Z M 11.359375 -97.609375 "/></g></g><g style="fill:#ffffff;fill-opacity:1;"><g transform="translate(358.382536, 205.117735)"><path style="stroke:none" d="M 78.625 -38.46875 C 78.625 -25.945312 75.46875 -16.171875 69.15625 -9.140625 C 62.851562 -2.109375 54.144531 1.40625 43.03125 1.40625 C 36.15625 1.40625 30.054688 -0.203125 24.734375 -3.421875 C 19.410156 -6.648438 15.300781 -11.273438 12.40625 -17.296875 C 9.507812 -23.328125 8.0625 -30.382812 8.0625 -38.46875 C 8.0625 -50.988281 11.191406 -60.738281 17.453125 -67.71875 C 23.710938 -74.707031 32.398438 -78.203125 43.515625 -78.203125 C 54.265625 -78.203125 62.800781 -74.628906 69.125 -67.484375 C 75.457031 -60.335938 78.625 -50.664062 78.625 -38.46875 Z M 20.109375 -38.46875 C 20.109375 -28.65625 22.070312 -21.179688 26 -16.046875 C 29.925781 -10.910156 35.695312 -8.34375 43.3125 -8.34375 C 50.925781 -8.34375 56.707031 -10.898438 60.65625 -16.015625 C 64.601562 -21.128906 66.578125 -28.613281 66.578125 -38.46875 C 66.578125 -48.238281 64.601562 -55.65625 60.65625 -60.71875 C 56.707031 -65.789062 50.878906 -68.328125 43.171875 -68.328125 C 35.554688 -68.328125 29.804688 -65.828125 25.921875 -60.828125 C 22.046875 -55.828125 20.109375 -48.375 20.109375 -38.46875 Z M 20.109375 -38.46875 "/></g></g></g></svg>